Coordinates
version=1
nRows=19
nColumns=24
inDegrees=yes

Units are S.I. units (second, meters, Newtons, ...)
Angles are in degrees.

endheader
time	pelvis_tilt	pelvis_list	pelvis_rotation	pelvis_tx	pelvis_ty	pelvis_tz	hip_flexion_r	hip_adduction_r	hip_rotation_r	knee_angle_r	ankle_angle_r	subtalar_angle_r	mtp_angle_r	hip_flexion_l	hip_adduction_l	hip_rotation_l	knee_angle_l	ankle_angle_l	subtalar_angle_l	mtp_angle_l	lumbar_extension	lumbar_bending	lumbar_rotation
      6.93000000	      0.60800332	      3.17609948	      1.13772924	     -0.74568523	      0.86727641	      0.27763506	    -16.15253288	      1.96857026	      3.28945864	    -10.61586716	     19.95892349	      2.46201795	      0.00000000	     18.32343290	      7.65229797	     -4.66649262	      0.95497894	      3.83273406	      4.09398762	      0.00000000	    -23.09908973	     -2.49278439	     -3.92500261
      6.94000000	      0.73348087	      3.50213651	      1.18963795	     -0.73312764	      0.86662803	      0.27698588	    -16.51405239	      1.57707176	      2.73958099	    -11.88383656	     19.64248123	      3.33350073	      0.00000000	     18.39663463	      8.18118081	     -2.68470141	     -0.61310470	      3.13736439	      2.09974828	      0.00000000	    -23.13456486	     -2.96425575	     -4.14886370
      6.95000000	      0.88681307	      3.84497034	      1.37284971	     -0.72053752	      0.86628061	      0.27614192	    -16.75650730	      1.17329337	      1.82053422	    -13.42851985	     19.11054897	      4.45688308	      0.00000000	     18.51473074	      8.78845927	     -0.23449623	     -2.49829720	      2.21272542	     -0.19998156	      0.00000000	    -23.21070683	     -3.41481128	     -4.47606228
      6.96000000	      1.06054520	      4.25370136	      1.57054145	     -0.70779622	      0.86624036	      0.27517554	    -16.86021837	      0.64941022	      0.65341840	    -15.26922921	     18.36496843	      5.85086849	      0.00000000	     18.64460230	      9.51497052	      2.39239311	     -4.59260837	      1.20016776	     -2.53173563	      0.00000000	    -23.27869850	     -3.91817407	     -4.79001114
      6.97000000	      1.27419008	      4.70346068	      1.81756839	     -0.69495245	      0.86650884	      0.27403852	    -16.83694156	      0.03245228	     -0.69864917	    -17.41465820	     17.31475633	      7.40675929	      0.00000000	     18.76209229	     10.35568606	      4.90234925	     -6.85409373	      0.33651063	     -4.48964541	      0.00000000	    -23.37079149	     -4.43400118	     -5.18420210
      6.98000000	      1.56983034	      5.22292912	      2.05149308	     -0.68196817	      0.86713697	      0.27284161	    -16.74465069	     -0.70846474	     -1.97471528	    -19.82611810	     15.84719171	      8.86856258	      0.00000000	     18.73394555	     11.31329777	      7.21364967	     -9.09446550	     -0.45682615	     -6.28926230	      0.00000000	    -23.52888974	     -5.01808906	     -5.52585262
      6.99000000	      1.79749040	      5.72466369	      2.30756794	     -0.66903034	      0.86777216	      0.27160163	    -16.33582755	     -1.51204492	     -3.34574807	    -22.62618046	     14.13455104	     10.48640725	      0.00000000	     18.81180896	     12.26741122	      8.73748762	    -11.43306023	     -0.56158437	     -7.01700863	      0.00000000	    -23.59481679	     -5.57302474	     -5.87079061
      7.00000000	      2.03771701	      6.19938714	      2.51166568	     -0.65608460	      0.86853603	      0.27039195	    -15.72902452	     -2.35387864	     -4.50988765	    -25.70320342	     11.95329169	     11.84730352	      0.00000000	     18.73328784	     13.17185333	     10.01045586	    -13.53584668	     -0.39430926	     -7.63756670	      0.00000000	    -23.64352016	     -6.09337909	     -6.15005046
      7.01000000	      2.27890444	      6.63758675	      2.61976201	     -0.64338884	      0.86932452	      0.26937538	    -14.87146938	     -3.21308456	     -5.30340021	    -29.07114176	      9.50390222	     13.06853067	      0.00000000	     18.56237282	     13.96138104	     10.75457940	    -15.43080275	      0.21815034	     -7.77556197	      0.00000000	    -23.72807503	     -6.59988958	     -6.30296522
      7.02000000	      2.42183306	      7.10103822	      2.71750236	     -0.63085564	      0.86994018	      0.26848361	    -13.69098409	     -4.12132977	     -5.90062204	    -32.67410902	      6.84666105	     13.95177190	      0.00000000	     18.35110404	     14.72123146	     11.23251982	    -17.03475462	      1.07485640	     -7.76121960	      0.00000000	    -23.70309590	     -7.16074496	     -6.48631328
      7.03000000	      2.35843268	      7.49950442	      2.71797996	     -0.61867390	      0.87019178	      0.26782721	    -12.01708381	     -4.99211284	     -6.14782156	    -36.51872553	      4.10340573	     14.50532411	      0.00000000	     18.26997267	     15.32333652	     11.30402123	    -18.38429036	      2.27342432	     -7.47379432	      0.00000000	    -23.45398169	     -7.69541665	     -6.55966816
      7.04000000	      2.28605981	      7.97295472	      2.59039113	     -0.60671840	      0.87037348	      0.26749122	    -10.13458067	     -5.94701952	     -6.13496201	    -40.47561145	      1.37129620	     14.73180270	      0.00000000	     18.05304008	     15.89432505	     11.06108950	    -19.38501201	      3.59572259	     -7.03569027	      0.00000000	    -23.21427643	     -8.37416454	     -6.56988350
      7.05000000	      2.15352049	      8.49277888	      2.40584111	     -0.59504568	      0.87037548	      0.26732251	     -8.01788212	     -6.94135851	     -5.97688739	    -44.48663063	     -1.19282738	     14.60005095	      0.00000000	     17.78462859	     16.44938575	     10.66583011	    -20.10256357	      4.97997703	     -6.52592139	      0.00000000	    -22.93059876	     -9.12412083	     -6.59392820
      7.06000000	      1.99231546	      9.07157824	      2.17814006	     -0.58359951	      0.87026664	      0.26729799	     -5.74894768	     -7.97649642	     -5.71418974	    -48.46467394	     -3.45255063	     14.12184975	      0.00000000	     17.43798874	     17.01439921	     10.17997523	    -20.56251248	      6.35494250	     -5.95953180	      0.00000000	    -22.63092567	     -9.95424828	     -6.65959033
      7.07000000	      1.84454940	      9.68993049	      1.94933809	     -0.57235454	      0.87015039	      0.26732722	     -3.42495185	     -9.02631237	     -5.41823823	    -52.31928549	     -5.31607459	     13.30540373	      0.00000000	     16.99353092	     17.59348871	      9.63135718	    -20.82868751	      7.64670625	     -5.38114893	      0.00000000	    -22.36662076	    -10.81358631	     -6.82333039
      7.08000000	      1.72828667	     10.31039711	      1.75845963	     -0.56126470	      0.87011655	      0.26733782	     -1.11660979	    -10.05390658	     -5.14627579	    -55.97001604	     -6.69133726	     12.21045277	      0.00000000	     16.42994767	     18.16757418	      9.11913297	    -20.92713521	      8.82965805	     -4.78163864	      0.00000000	    -22.15209151	    -11.63815199	     -7.07872205
      7.09000000	      1.65852981	     10.89752695	      1.64800429	     -0.55028368	      0.87025091	      0.26727906	      1.10710350	    -11.01830273	     -4.92804830	    -59.34336757	     -7.53575568	     10.93928667	      0.00000000	     15.74080602	     18.71822727	      8.70623185	    -20.90930808	      9.89104106	     -4.18211888	      0.00000000	    -22.00672526	    -12.38278868	     -7.43477177
      7.10000000	      1.66834606	     11.40974437	      1.63413049	     -0.53941923	      0.87066978	      0.26711632	      3.17651247	    -11.88679273	     -4.80179588	    -62.38370155	     -7.86180283	      9.58265264	      0.00000000	     14.89001195	     19.21208047	      8.44530247	    -20.79286558	     10.79783110	     -3.63872566	      0.00000000	    -21.98035191	    -12.98868621	     -7.93346739
      7.11000000	      1.71099304	     11.81500895	      1.72869913	     -0.52864418	      0.87133797	      0.26683543	      5.11988528	    -12.63305899	     -4.76727902	    -65.06578425	     -7.69544800	      8.27422711	      0.00000000	     13.93284285	     19.61596879	      8.35595149	    -20.60326417	     11.59213651	     -3.12028935	      0.00000000	    -22.00608017	    -13.42524346	     -8.51836550
